<svg width="48" height="48" viewBox="0 0 48 48" fill="none" xmlns="http://www.w3.org/2000/svg">
<path d="M23.4142 10.5858C24.1953 11.3668 24.1953 12.6332 23.4142 13.4142L14.8284 22H38C39.1046 22 40 22.8954 40 24C40 25.1046 39.1046 26 38 26H14.8284L23.4142 34.5858C24.1953 35.3668 24.1953 36.6332 23.4142 37.4142C22.6332 38.1953 21.3668 38.1953 20.5858 37.4142L8.58579 25.4142C8.21071 25.0391 8 24.5304 8 24C8 23.4696 8.21071 22.9609 8.58579 22.5858L20.5858 10.5858C21.3668 9.80474 22.6332 9.80474 23.4142 10.5858Z" fill="#0D0D0D"/>
</svg>
