<svg width="48" height="48" viewBox="0 0 48 48" fill="none" xmlns="http://www.w3.org/2000/svg">
<path d="M24.5858 10.5858C25.3668 9.80474 26.6332 9.80474 27.4142 10.5858L39.4142 22.5858C39.7893 22.9609 40 23.4696 40 24C40 24.5304 39.7893 25.0391 39.4142 25.4142L27.4142 37.4142C26.6332 38.1953 25.3668 38.1953 24.5858 37.4142C23.8047 36.6332 23.8047 35.3668 24.5858 34.5858L33.1716 26L10 26C8.89543 26 8 25.1046 8 24C8 22.8954 8.89543 22 10 22L33.1716 22L24.5858 13.4142C23.8047 12.6332 23.8047 11.3668 24.5858 10.5858Z" fill="#0D0D0D"/>
</svg>
